<svg height="184" viewBox="0 0 556 184" width="556" xmlns="http://www.w3.org/2000/svg"><path d="m518 162.9a18.66 18.66 0 1 0 0-.22z" fill="#ed2024"/><path d="m31.57 0v32.1h-31.57v-32.1zm-1.57 180.15h-28.14v-123.91h28.14z"/><path d="m193.46 180.15h-28.13v-11.41a46.12 46.12 0 0 1 -16.85 10.88 60.52 60.52 0 0 1 -22.15 4 63.79 63.79 0 0 1 -26.93-5.44 58.8 58.8 0 0 1 -19.77-14.48 63.77 63.77 0 0 1 -12.21-20.83 72 72 0 0 1 -4.24-24.54 73 73 0 0 1 4.24-24.67 63.56 63.56 0 0 1 12.21-21 58.63 58.63 0 0 1 19.77-14.42q11.8-5.44 26.93-5.44a60.73 60.73 0 0 1 22.15 4 46.14 46.14 0 0 1 16.85 10.89v-65h28.13zm-30.25-79.07a36.16 36.16 0 0 0 -8.63-12.46 34.37 34.37 0 0 0 -12.33-7.43 42.66 42.66 0 0 0 -14.07-2.39 34.82 34.82 0 0 0 -15 3.18 37.51 37.51 0 0 0 -11.67 8.49 36.68 36.68 0 0 0 -7.51 12.61 44.3 44.3 0 0 0 -2.65 15.25 43.08 43.08 0 0 0 2.65 15.12 37 37 0 0 0 7.56 12.47 37.51 37.51 0 0 0 11.67 8.49 34.65 34.65 0 0 0 15 3.19 42.66 42.66 0 0 0 14.07-2.39 35.59 35.59 0 0 0 12.33-7.29 35 35 0 0 0 8.63-12.34 43.52 43.52 0 0 0 3.18-17.25 43.56 43.56 0 0 0 -3.23-17.25z"/><path d="m309.21 154.28a27 27 0 0 0 12.2-10.21h30.52a58.34 58.34 0 0 1 -23.08 28.93 65.35 65.35 0 0 1 -36.62 10.61 69.3 69.3 0 0 1 -26.39-4.91 62.41 62.41 0 0 1 -20.84-13.7 64.43 64.43 0 0 1 -13.79-20.7 66.85 66.85 0 0 1 -5.05-26.3 68.52 68.52 0 0 1 4.84-25.67 61.75 61.75 0 0 1 13.39-20.69 63.1 63.1 0 0 1 20.43-13.8 65.82 65.82 0 0 1 26.14-5 64.14 64.14 0 0 1 25.33 4.9 59.38 59.38 0 0 1 19.91 13.67 63.05 63.05 0 0 1 13 20.43 67.48 67.48 0 0 1 4.65 25.2v5.58a31.55 31.55 0 0 1 -.53 5.57h-98a34 34 0 0 0 12.68 21.32q10.2 8.09 24.27 8.09a42.3 42.3 0 0 0 16.94-3.32zm-41.65-68.72a29.93 29.93 0 0 0 -11.68 20h68.19q-2.11-12.48-10.88-20t-22.28-7.56q-13.53 0-23.35 7.56z"/><path d="m416.76 0v32.1h-31.57v-32.1zm-1.59 180.15h-28.17v-123.91h28.13z"/><path d="m484.17 180.15h-28.11v-177.49h28.11z"/></svg>
